<?xml version="1.0" encoding="utf-8"?>
<!-- Generator: Adobe Illustrator 26.5.0, SVG Export Plug-In . SVG Version: 6.00 Build 0)  -->
<svg version="1.1" id="Outline" xmlns="http://www.w3.org/2000/svg" xmlns:xlink="http://www.w3.org/1999/xlink" x="0px" y="0px"
	 viewBox="0 0 512 512" style="enable-background:new 0 0 512 512;" xml:space="preserve">
<style type="text/css">
	.st0{fill:#FFFFFF;}
</style>
<path class="st0" d="M493.2,211.4L410.7,128c-8.3-8.4-21.8-8.4-30.2-0.1c0,0-0.1,0.1-0.1,0.1l0,0c-8.3,8.3-8.3,21.8,0,30.1
	l75.9,76.6h-435C9.6,234.7,0,244.2,0,256l0,0c0,11.8,9.6,21.3,21.3,21.3h436.3l-77.2,77c-8.4,8.3-8.4,21.8-0.1,30.2
	c0,0,0.1,0.1,0.1,0.1l0,0c8.3,8.4,21.8,8.4,30.2,0.1c0,0,0.1-0.1,0.1-0.1l82.6-82.8C517.9,276.9,517.7,236.6,493.2,211.4z"/>
</svg>
